<?xml version="1.0" encoding="UTF-8"?>
<!DOCTYPE svg PUBLIC "-//W3C//DTD SVG 1.1//EN" "http://www.w3.org/Graphics/SVG/1.1/DTD/svg11.dtd">
<!-- Creator: CorelDRAW 2021.5 -->
<svg xmlns="http://www.w3.org/2000/svg" xml:space="preserve" width="162mm" height="165mm" version="1.1" style="shape-rendering:geometricPrecision; text-rendering:geometricPrecision; image-rendering:optimizeQuality; fill-rule:evenodd; clip-rule:evenodd"
viewBox="0 0 16200 16500"
 xmlns:xlink="http://www.w3.org/1999/xlink"
 xmlns:xodm="http://www.corel.com/coreldraw/odm/2003">
 <g id="Layer_x0020_1">
  <metadata id="CorelCorpID_0Corel-Layer"/>
  <g id="_2583793700016">
   <path fill="#ffffff" d="M10890.39 7598.03l5.68 -34.64c94.66,-383.5 225.97,-711.34 161.58,-1167.36 -116.47,-824.76 -648.54,-1151.31 -1411.71,-1265.71 -286.34,-42.94 -970.66,6.66 -1192.13,107.69 137.49,-9.6 272.61,-42.7 425.2,-51.47 376.18,-21.65 838.02,88.75 1046.77,380.67 322.98,451.63 213.79,991.57 17.07,1491.45 -175.65,446.37 -436.15,861.04 -682.18,1203.11 -389.73,541.9 -826.22,1058.59 -1319.95,1514.83l-752.57 658.69c-572.42,471.1 -1391.25,954.83 -2099.6,1197.82 -232.52,79.76 -510.64,140.65 -783.52,163.55 -452.21,37.94 -539.49,-43.59 -852.82,-86.08 33.36,27.45 93.53,42.7 140.57,57.49 152.57,47.97 297.03,78.45 458.91,98.29 708.27,86.79 1309.05,-23.87 1976.51,-194.59 699.31,-178.85 1443.93,-567.49 2049.09,-931.14 146,-87.73 314.82,-205.38 449.06,-305.35 996.29,-741.91 1866.74,-1607.31 2330.27,-2780.36l33.77 -56.89z"/>
   <path fill="#ffffff" d="M6027.5 4329.55c-3.16,29.15 -230.84,454.12 -269.97,538.73 -43.46,93.91 -86.32,186 -126.13,287.94 -32.55,83.37 -80.42,236.16 -124.56,286.83l-103.88 344.56c-76.87,275.36 -145.68,466.24 -216.77,760.95 -24.37,101.09 -59.44,319.19 -88.04,394.36 1.85,0.74 5.48,-1.91 6,0.27 8.16,34.19 23.7,-43.83 24.14,20.3 61.18,-32.73 205.28,-196.83 228.57,-221.38 73.47,-77.47 150.19,-139.85 221.64,-216.49 131.37,-140.92 264.62,-241.04 399.47,-366.77 28.18,-26.28 37.37,-24.08 55.35,-52.66 93.51,-294.3 191.55,-893.29 337.73,-1111.66 16.14,-95.69 155.95,-388.92 203.77,-477.99 88.34,-164.57 163.2,-286.31 256.94,-424.89 390.71,-577.64 995.12,-1102.72 1744.64,-788.11 155.84,65.41 304.35,148.44 453.2,228.37 744.98,400.04 1543.34,760.22 2372.02,1035.01 587.67,194.87 1611.42,462.75 2234.47,476.67 -66.92,-28.54 -198.34,-52.56 -280.16,-72.61l-817.82 -228.82c-934.82,-280.83 -2593.43,-980.87 -3448.41,-1454.15 -157.58,-87.23 -276.83,-162.77 -449.98,-243.02 -357.65,-165.77 -766.57,-218.64 -1180.43,-89.49 -841.89,262.73 -1325.26,1272.79 -1431.79,1374.05z"/>
   <g>
    <path fill="#ffffff" d="M3748.17 6839.78c-56.91,54.05 -86.08,100.24 -138.55,150.75 -185.77,178.83 -446.5,534.36 -597.06,741.44 -349.59,480.9 -748.47,1292.28 -745.46,1948.61 1.49,323.52 100.08,625.39 249.57,838.67 148.59,211.99 321.3,354.26 595.65,476.45 423.07,188.42 940.91,210.36 1412.34,159.83l348.22 -54.39c16.95,-3.56 42.52,-7.78 59.69,-13.47l47.97 -23.76c-332.06,29.37 -567.11,79.05 -899.69,-2.73 -268.44,-66.01 -491.59,-195.71 -611.19,-350.68 -161.29,-208.97 -229.02,-423.94 -180.75,-758.76 115.4,-800.46 863.62,-1850.92 1392.38,-2474.01l447 -514.24c-0.44,-64.13 -15.98,13.89 -24.14,-20.3 -0.52,-2.18 -4.15,0.47 -6,-0.27 28.6,-75.17 63.67,-293.27 88.04,-394.36 71.09,-294.71 139.9,-485.59 216.77,-760.95l103.88 -344.56c-233.65,126.14 -737.94,494.58 -932.59,649.88 -73.43,58.58 -146.82,115.82 -214.56,174.7 -98.16,85.29 -561.91,493.18 -611.52,572.15z"/>
    <path fill="#ffffff" d="M6371.05 4994.53c-146.18,218.37 -244.22,817.36 -337.73,1111.66 75.39,-49.38 139.94,-116.67 215.99,-174.89 243.2,-186.15 391.35,-307.48 664.76,-503.08 285.77,-204.45 627.57,-393.31 983.62,-574.13 557.77,-283.25 1255.13,-466.82 1905.88,-353.9 363.73,63.11 359.53,110.41 597.84,181.5 -44.03,-40.68 -152.5,-84.93 -210.2,-110.27 -222.85,-97.85 -489.45,-165.12 -736.23,-199.64 -902.43,-126.22 -1825.72,119.38 -2651.4,434.08 -145.1,55.29 -297.38,145.31 -432.53,188.67z"/>
   </g>
   <path fill="#ffffff" d="M10917.14 10149.33c348.52,-346.4 926.36,-945.74 1198.46,-1307.47l662.27 -846.75c70.74,-88.61 128.25,-191.6 204.31,-294.25 290.04,-391.42 521.45,-827.83 757.01,-1250.87 65.04,-116.8 112.57,-217.92 165.7,-333.36 106.02,-230.38 216.95,-466.36 306.72,-701.57 48.25,-126.45 82.94,-248.3 126.7,-372.39 162.22,-460.11 304.92,-1249.12 250.97,-1745.37 -27.25,-250.69 -91.76,-598.55 -183.39,-811.44 -54.49,-126.56 -95.91,-230.3 -159.91,-351.17 -161.38,-304.77 -450.72,-589.4 -744.29,-751.65 -243.33,-134.49 -437.31,-199.86 -773.08,-237.17 -433.01,-48.09 -688.45,88.55 -895.96,93.27l105.43 -70.85c247.28,-125.86 503.17,-258.12 771.52,-346.21 703.74,-231.04 1493.82,-346.9 2168.35,-25.24 267.05,127.34 516.27,342.14 691.94,585.89 442.02,613.34 552.03,1250.46 523.21,2019.41 -11.29,301.27 -120.52,789.71 -211.22,1077.66 -24.28,77.06 -270.31,839.45 -355.16,927.12 1.21,2.93 2.53,5.74 3.93,7.22 -56.77,195.09 -185.15,386.93 -273.06,570.03 -26.26,54.69 -73.2,128.76 -87.21,187.15 -9.17,7.15 -2.08,0.03 -15.52,16.35l-36.38 58.16c-81.27,167.32 -222.37,397.08 -318.01,547.65l-194.37 304.54c-73.04,101.55 -130.4,195.72 -204.51,294.07l-206.99 291.46c-22.51,33.48 -32.57,50.26 -55.57,79.05 -23.51,29.42 -32.52,39.37 -53.61,67.35l-322.91 420.63c-62.72,88.16 -207.23,219.93 -207.61,270.3 -51.26,20.39 -51.61,45.2 -89.68,88.8l-544.18 599.55c-25.16,26.14 -51.9,62.58 -78.83,91.14 -28.28,30 -52.21,48.53 -78.77,78.83l-324.31 333.39c-30.09,30.32 -45.14,51.39 -77.53,80.86l-167.61 160.82c-26,23.71 -47.7,50.93 -77.39,80.54l-1379.57 1224.13c-113.94,94.47 -730.94,586.8 -825.89,645.51 -161.3,99.7 -310.6,229.37 -466.47,337.23 -188.16,130.21 -846,590.34 -972.07,657.05 -26.01,13.76 -37.45,17.51 -56.81,30.51l-148.36 93.93c-203.95,116.01 -399.21,250.4 -605.27,368.15l-415.58 241.2c-671.78,373.71 -1262.31,660.37 -1959.57,973.11 -155.98,69.95 -302.96,123.06 -462.55,194.57 -75.45,33.8 -159.22,62.45 -238.36,91.31l-464.44 178.83c-278.03,105.9 -1460.71,474.96 -1751.26,523.2 -185.46,30.8 -351.07,84.61 -543.14,116.87 -475.1,79.82 -1095.17,188.49 -1585.59,197.47 -40.69,0.74 -109.17,11.12 -144.27,-9.78 17.14,-6.83 405.72,-53.45 449.94,-58.37 154.75,-17.25 287.71,-48.39 426.07,-71.89 289.98,-49.24 546.61,-113.96 820.4,-180.75 346.07,-84.43 1399.24,-411.19 1708.14,-552.62 62.9,-28.8 121.2,-43.37 185.78,-70.15 239.73,-99.38 465.1,-187.75 699,-298.1 115.4,-54.44 225.4,-102.88 341.95,-157.16 822.49,-383.05 2079.22,-1095.03 2877.94,-1647.79l741.14 -513.72 1257.22 -992.25c180.72,-146.48 363.33,-325.64 540.38,-469.28 169.4,-137.42 606.58,-572.51 771.78,-736.69z"/>
 </g>
</g>
</svg>
