<?xml version="1.0" encoding="UTF-8"?>
<svg xmlns="http://www.w3.org/2000/svg" xmlns:xlink="http://www.w3.org/1999/xlink" width="612px" height="624px" viewBox="0 0 306 311" version="1.1">
<g id="surface1">
<path style=" stroke:none;fill-rule:evenodd;fill:rgb(50.588238%,68.627453%,87.843138%);fill-opacity:1;" d="M 205.714844 143.125 L 205.820312 142.472656 C 207.609375 135.25 210.089844 129.074219 208.871094 120.484375 C 206.671875 104.945312 196.621094 98.796875 182.207031 96.640625 C 176.796875 95.832031 163.871094 96.765625 159.6875 98.667969 C 162.285156 98.488281 164.835938 97.863281 167.71875 97.699219 C 174.824219 97.292969 183.550781 99.371094 187.492188 104.871094 C 193.59375 113.378906 191.53125 123.546875 187.816406 132.964844 C 184.496094 141.371094 179.574219 149.183594 174.929688 155.628906 C 167.566406 165.835938 159.320312 175.566406 149.996094 184.164062 L 135.78125 196.570312 C 124.96875 205.445312 109.5 214.554688 96.121094 219.132812 C 91.726562 220.636719 86.472656 221.78125 81.320312 222.214844 C 72.777344 222.929688 71.128906 221.394531 65.210938 220.59375 C 65.839844 221.109375 66.976562 221.398438 67.867188 221.675781 C 70.746094 222.578125 73.476562 223.152344 76.535156 223.527344 C 89.914062 225.164062 101.261719 223.078125 113.867188 219.863281 C 127.078125 216.492188 141.144531 209.171875 152.574219 202.320312 C 155.332031 200.667969 158.523438 198.453125 161.058594 196.570312 C 179.878906 182.59375 196.320312 166.292969 205.074219 144.195312 Z M 205.714844 143.125 "/>
<path style=" stroke:none;fill-rule:evenodd;fill:rgb(14.509805%,47.843137%,72.941178%);fill-opacity:1;" d="M 113.855469 81.554688 C 113.796875 82.105469 109.496094 90.109375 108.757812 91.703125 C 107.933594 93.472656 107.125 95.207031 106.375 97.128906 C 105.757812 98.699219 104.855469 101.578125 104.019531 102.53125 L 102.058594 109.023438 C 100.605469 114.207031 99.308594 117.804688 97.964844 123.355469 C 97.503906 125.261719 96.839844 129.367188 96.300781 130.785156 C 96.335938 130.796875 96.40625 130.75 96.414062 130.789062 C 96.570312 131.433594 96.863281 129.964844 96.871094 131.171875 C 98.027344 130.554688 100.746094 127.464844 101.1875 127 C 102.574219 125.542969 104.023438 124.367188 105.375 122.921875 C 107.855469 120.269531 110.375 118.382812 112.921875 116.015625 C 113.453125 115.519531 113.625 115.5625 113.964844 115.023438 C 115.730469 109.480469 117.585938 98.195312 120.34375 94.082031 C 120.648438 92.28125 123.292969 86.757812 124.195312 85.078125 C 125.863281 81.976562 127.277344 79.683594 129.046875 77.074219 C 136.429688 66.195312 147.84375 56.300781 162.003906 62.230469 C 164.945312 63.460938 167.753906 65.023438 170.5625 66.53125 C 184.636719 74.066406 199.714844 80.851562 215.371094 86.027344 C 226.46875 89.699219 245.808594 94.746094 257.578125 95.007812 C 256.3125 94.46875 253.832031 94.015625 252.285156 93.640625 L 236.835938 89.328125 C 219.179688 84.039062 187.847656 70.851562 171.699219 61.9375 C 168.722656 60.292969 166.46875 58.871094 163.199219 57.359375 C 156.445312 54.234375 148.71875 53.238281 140.902344 55.671875 C 125 60.621094 115.867188 79.648438 113.855469 81.554688 Z M 113.855469 81.554688 "/>
<path style=" stroke:none;fill-rule:evenodd;fill:rgb(18.039216%,23.921569%,54.11765%);fill-opacity:1;" d="M 70.800781 128.839844 C 69.726562 129.859375 69.175781 130.730469 68.183594 131.679688 C 64.675781 135.050781 59.75 141.746094 56.90625 145.648438 C 50.300781 154.707031 42.765625 169.992188 42.824219 182.355469 C 42.851562 188.449219 44.714844 194.132812 47.539062 198.152344 C 50.34375 202.144531 53.609375 204.824219 58.789062 207.125 C 66.78125 210.675781 76.5625 211.089844 85.46875 210.136719 L 92.046875 209.113281 C 92.367188 209.046875 92.847656 208.964844 93.171875 208.859375 L 94.078125 208.410156 C 87.808594 208.964844 83.367188 209.902344 77.085938 208.359375 C 72.015625 207.117188 67.800781 204.671875 65.539062 201.753906 C 62.492188 197.816406 61.214844 193.769531 62.125 187.460938 C 64.304688 172.382812 78.4375 152.59375 88.425781 140.859375 L 96.871094 131.171875 C 96.863281 129.964844 96.570312 131.433594 96.414062 130.789062 C 96.40625 130.75 96.335938 130.796875 96.300781 130.785156 C 96.839844 129.367188 97.503906 125.261719 97.964844 123.355469 C 99.308594 117.804688 100.605469 114.207031 102.058594 109.023438 L 104.019531 102.53125 C 99.609375 104.90625 90.082031 111.847656 86.40625 114.773438 C 85.019531 115.875 83.632812 116.953125 82.351562 118.0625 C 80.496094 119.671875 71.738281 127.355469 70.800781 128.839844 Z M 70.800781 128.839844 "/>
<path style=" stroke:none;fill-rule:evenodd;fill:rgb(18.039216%,23.921569%,54.11765%);fill-opacity:1;" d="M 120.34375 94.082031 C 117.585938 98.195312 115.730469 109.480469 113.964844 115.023438 C 115.390625 114.09375 116.609375 112.824219 118.046875 111.726562 C 122.640625 108.222656 125.4375 105.9375 130.601562 102.25 C 136 98.402344 142.457031 94.84375 149.183594 91.4375 C 159.71875 86.101562 172.890625 82.644531 185.183594 84.769531 C 192.054688 85.960938 191.976562 86.851562 196.476562 88.1875 C 195.644531 87.421875 193.597656 86.589844 192.507812 86.113281 C 188.296875 84.269531 183.261719 83 178.597656 82.351562 C 161.550781 79.972656 144.113281 84.601562 128.515625 90.527344 C 125.773438 91.570312 122.898438 93.265625 120.34375 94.082031 Z M 120.34375 94.082031 "/>
<path style=" stroke:none;fill-rule:evenodd;fill:rgb(98.431373%,83.529413%,9.411765%);fill-opacity:1;" d="M 206.21875 191.183594 C 212.800781 184.660156 223.714844 173.367188 228.855469 166.554688 L 241.367188 150.605469 C 242.703125 148.933594 243.789062 146.996094 245.226562 145.0625 C 250.703125 137.6875 255.074219 129.46875 259.523438 121.5 C 260.753906 119.296875 261.652344 117.394531 262.65625 115.21875 C 264.65625 110.878906 266.753906 106.433594 268.449219 102.003906 C 269.359375 99.621094 270.015625 97.328125 270.84375 94.988281 C 273.90625 86.320312 276.601562 71.460938 275.582031 62.113281 C 275.066406 57.390625 273.847656 50.835938 272.117188 46.828125 C 271.089844 44.441406 270.308594 42.488281 269.097656 40.210938 C 266.050781 34.46875 260.585938 29.109375 255.039062 26.050781 C 250.441406 23.519531 246.777344 22.289062 240.4375 21.585938 C 232.257812 20.679688 227.429688 23.253906 223.511719 23.339844 L 225.503906 22.007812 C 230.175781 19.636719 235.007812 17.144531 240.078125 15.484375 C 253.371094 11.132812 268.292969 8.949219 281.035156 15.011719 C 286.078125 17.410156 290.789062 21.453125 294.105469 26.046875 C 302.457031 37.601562 304.535156 49.601562 303.988281 64.085938 C 303.777344 69.761719 301.710938 78.960938 300 84.386719 C 299.539062 85.835938 294.894531 100.199219 293.289062 101.851562 C 293.3125 101.90625 293.339844 101.957031 293.363281 101.988281 C 292.292969 105.660156 289.867188 109.273438 288.207031 112.722656 C 287.710938 113.753906 286.824219 115.148438 286.558594 116.25 C 286.386719 116.382812 286.519531 116.25 286.265625 116.558594 L 285.578125 117.652344 C 284.042969 120.804688 281.378906 125.132812 279.570312 127.96875 L 275.902344 133.707031 C 274.519531 135.617188 273.4375 137.394531 272.039062 139.246094 L 268.128906 144.734375 C 267.703125 145.367188 267.511719 145.683594 267.078125 146.226562 C 266.632812 146.777344 266.464844 146.964844 266.066406 147.492188 L 259.964844 155.417969 C 258.78125 157.078125 256.050781 159.558594 256.042969 160.507812 C 255.074219 160.890625 255.070312 161.359375 254.351562 162.179688 L 244.070312 173.476562 C 243.59375 173.96875 243.089844 174.652344 242.582031 175.191406 C 242.046875 175.757812 241.59375 176.105469 241.09375 176.675781 L 234.96875 182.957031 C 234.398438 183.527344 234.113281 183.925781 233.503906 184.480469 L 230.335938 187.507812 C 229.847656 187.957031 229.4375 188.46875 228.875 189.027344 L 202.816406 212.085938 C 200.664062 213.863281 189.007812 223.140625 187.214844 224.246094 C 184.167969 226.121094 181.347656 228.566406 178.402344 230.597656 C 174.851562 233.050781 162.421875 241.71875 160.042969 242.972656 C 159.550781 243.234375 159.335938 243.304688 158.96875 243.550781 L 156.167969 245.316406 C 152.3125 247.503906 148.625 250.035156 144.734375 252.253906 L 136.882812 256.796875 C 124.195312 263.835938 113.039062 269.234375 99.867188 275.128906 C 96.921875 276.445312 94.144531 277.445312 91.132812 278.792969 C 89.707031 279.429688 88.125 279.96875 86.628906 280.511719 L 77.855469 283.882812 C 72.605469 285.875 50.265625 292.828125 44.777344 293.738281 C 41.273438 294.316406 38.144531 295.332031 34.515625 295.9375 C 25.542969 297.441406 13.828125 299.488281 4.566406 299.65625 C 3.796875 299.671875 2.503906 299.867188 1.839844 299.472656 C 2.164062 299.34375 9.503906 298.464844 10.339844 298.375 C 13.261719 298.050781 15.773438 297.460938 18.386719 297.019531 C 23.863281 296.09375 28.710938 294.875 33.882812 293.613281 C 40.421875 292.023438 60.316406 285.871094 66.148438 283.207031 C 67.339844 282.664062 68.4375 282.386719 69.660156 281.882812 C 74.1875 280.011719 78.445312 278.347656 82.863281 276.269531 C 85.042969 275.242188 87.121094 274.332031 89.320312 273.308594 C 104.859375 266.09375 128.597656 252.679688 143.683594 242.269531 L 157.683594 232.589844 L 181.433594 213.902344 C 184.847656 211.140625 188.296875 207.765625 191.640625 205.0625 C 194.839844 202.472656 203.097656 194.277344 206.21875 191.183594 Z M 206.21875 191.183594 "/>
</g>
</svg>
